<svg width="195" height="62" viewBox="0 0 195 62" fill="none" xmlns="http://www.w3.org/2000/svg">
<g filter="url(#filter0_d_94_272)">
<path d="M186.766 53.9812C187.584 54.1107 188.352 53.5524 188.482 52.7341L190.592 39.4001C190.721 38.5819 190.163 37.8136 189.345 37.6841C188.527 37.5546 187.758 38.1129 187.629 38.9311L185.753 50.7836L173.9 48.9078C173.082 48.7783 172.314 49.3366 172.184 50.1548C172.055 50.9731 172.613 51.7414 173.431 51.8709L186.766 53.9812ZM4 3.77356C35.2765 3.77364 71.7589 3.77816 104.973 10.0261C138.2 16.2766 167.869 28.7255 185.787 53.3815L188.213 51.6178C169.631 26.0479 139.05 13.3839 105.527 7.0778C71.9911 0.769201 35.2235 0.773639 4 0.77356L4 3.77356Z" fill="#686EFC"/>
</g>
<defs>
<filter id="filter0_d_94_272" x="0" y="0.77356" width="194.611" height="61.2263" filterUnits="userSpaceOnUse" color-interpolation-filters="sRGB">
<feFlood flood-opacity="0" result="BackgroundImageFix"/>
<feColorMatrix in="SourceAlpha" type="matrix" values="0 0 0 0 0 0 0 0 0 0 0 0 0 0 0 0 0 0 127 0" result="hardAlpha"/>
<feOffset dy="4"/>
<feGaussianBlur stdDeviation="2"/>
<feComposite in2="hardAlpha" operator="out"/>
<feColorMatrix type="matrix" values="0 0 0 0 0 0 0 0 0 0 0 0 0 0 0 0 0 0 0.25 0"/>
<feBlend mode="normal" in2="BackgroundImageFix" result="effect1_dropShadow_94_272"/>
<feBlend mode="normal" in="SourceGraphic" in2="effect1_dropShadow_94_272" result="shape"/>
</filter>
</defs>
</svg>
