<svg width="187" height="54" viewBox="0 0 187 54" fill="none" xmlns="http://www.w3.org/2000/svg">
<path d="M182.766 0.292336C183.584 0.162834 184.352 0.721169 184.482 1.53941L186.592 14.8734C186.721 15.6917 186.163 16.46 185.345 16.5895C184.527 16.719 183.758 16.1607 183.629 15.3424L181.753 3.48994L169.9 5.36581C169.082 5.49531 168.314 4.93697 168.184 4.11873C168.055 3.30049 168.613 2.53219 169.431 2.40269L182.766 0.292336ZM-3.80373e-06 50.5C31.2765 50.4999 67.7589 50.4954 100.973 44.2475C134.2 37.997 163.869 25.5481 181.787 0.892078L184.213 2.65571C165.631 28.2256 135.05 40.8897 101.527 47.1958C67.9911 53.5044 31.2235 53.4999 3.80373e-06 53.5L-3.80373e-06 50.5Z" fill="#686EFC"/>
</svg>
