<svg viewBox="0 0 24 24" fill="#686EFC" xmlns="http://www.w3.org/2000/svg">
<path fill-rule="evenodd" clip-rule="evenodd" d="M16.2873 12.6425L14.5731 14.3568H12.8588L11.3588 15.8568V14.3568H9.43019V7.92824H16.2873V12.6425ZM15.0016 9.42824H14.1445V11.9997H15.0016V9.42824ZM11.7873 9.42824H12.6445V11.9997H11.7873V9.42824Z" fill="#686EFC"/>
<path fill-rule="evenodd" clip-rule="evenodd" d="M12 0C18.6274 0 24 5.37258 24 12C24 18.6274 18.6274 24 12 24C5.37258 24 0 18.6274 0 12C0 5.37258 5.37258 0 12 0ZM9.00162 7.07109L6.85876 9.21395V16.9282H9.43019V19.0711L11.5731 16.9282H13.2873L17.1445 13.0711V7.07109H9.00162Z" />
</svg>
