<svg viewBox="0 0 44 44" fill="none" xmlns="http://www.w3.org/2000/svg">
<path d="M35.7937 27.1352H20.7301C20.1389 27.1352 19.6833 26.6127 19.7639 26.026L22.0382 9.48199C22.049 9.40254 22.0428 9.32168 22.0198 9.24486C21.9968 9.16803 21.9576 9.09701 21.9049 9.03658C21.8522 8.97614 21.7872 8.92768 21.7142 8.89447C21.6412 8.86125 21.562 8.84404 21.4818 8.84399H18.2734" stroke-width="2" stroke-linecap="round" stroke-linejoin="round"/>
<path d="M21.774 11.4153H38.2327C38.6636 11.4153 39.0009 11.7893 38.956 12.2183L38.0375 20.9725C37.9895 21.4282 37.7745 21.8501 37.4339 22.1568C37.0934 22.4635 36.6514 22.6333 36.1931 22.6335H20.2321M16.1154 15.1305H11.0655M15 21.032H5.04297" stroke-width="2" stroke-linecap="round" stroke-linejoin="round"/>
<path d="M21.4585 34.3148C22.6107 33.2597 22.8275 31.6211 21.9427 30.6548C21.0578 29.6885 19.4065 29.7605 18.2542 30.8156C17.102 31.8707 16.8853 33.5094 17.7701 34.4757C18.655 35.442 20.3063 35.3699 21.4585 34.3148Z"  stroke-width="2" stroke-linecap="round" stroke-linejoin="round"/>
<path d="M34.8726 34.3151C36.0248 33.26 36.2416 31.6213 35.3567 30.655C34.4719 29.6888 32.8205 29.7608 31.6683 30.8159C30.5161 31.871 30.2993 33.5096 31.1842 34.4759C32.069 35.4422 33.7204 35.3702 34.8726 34.3151Z"  stroke-width="2" stroke-linecap="round" stroke-linejoin="round"/>
</svg>
