<svg viewBox="0 0 32 32" fill="#1826e1" xmlns="http://www.w3.org/2000/svg">
<path d="M15.9967 0C7.1985 0 0 7.2 0 16C0 24.8 7.1985 32 15.9967 32C21.6888 32 26.7144 28.9867 29.5472 24.4733C29.6014 24.3876 29.6256 24.2862 29.616 24.1852C29.6063 24.0842 29.5635 23.9893 29.4941 23.9153C29.4247 23.8413 29.3326 23.7924 29.2325 23.7764C29.1323 23.7604 29.0297 23.778 28.9406 23.8267C28.5506 24.0557 28.14 24.2476 27.7142 24.4C25.2614 25.24 23.9084 25.2733 22.242 25.2C20.3824 25.12 18.1162 24.48 16.5232 23.5333C14.9302 22.5867 13.6238 21.2267 12.9173 20.0467C12.2108 18.8667 11.7842 17.3867 11.9775 15.4933C12.1708 13.56 13.9371 11.9867 16.0033 11.9867C18.2362 11.9867 20.0558 13.76 20.0558 15.9933C20.0558 17.1267 19.5159 18.1067 18.8227 18.8933C18.6694 19.0333 18.3162 19.54 19.2093 20.2267C20.2691 21.04 22.6486 21.4267 24.5349 21.3333C26.4212 21.24 28.4741 20.4933 29.8804 19.0133C31.0002 17.8333 32 15.94 32 13.8533C31.9933 5.51333 24.2616 0 15.9967 0Z"/>
</svg>
