<svg width="42" height="42" viewBox="0 0 42 42" xmlns="http://www.w3.org/2000/svg">
<path d="M28.1045 4.29444C28.5966 4.7867 28.873 5.45426 28.873 6.15032C28.873 6.84637 28.5966 7.51393 28.1045 8.00619L15.1107 20.9999L28.1045 33.9937C28.5826 34.4888 28.8472 35.1519 28.8413 35.8401C28.8353 36.5284 28.5592 37.1868 28.0725 37.6735C27.5858 38.1602 26.9274 38.4362 26.2392 38.4422C25.5509 38.4482 24.8878 38.1836 24.3927 37.7054L9.54311 22.8558C9.051 22.3636 8.77454 21.696 8.77454 20.9999C8.77454 20.3039 9.051 19.6363 9.54311 19.1441L24.3927 4.29444C24.885 3.80233 25.5526 3.52588 26.2486 3.52588C26.9447 3.52588 27.6122 3.80233 28.1045 4.29444Z" />
</svg>
