<svg width="42" height="42" viewBox="0 0 42 42" xmlns="http://www.w3.org/2000/svg">
<path d="M13.8955 37.7056C13.4034 37.2133 13.127 36.5457 13.127 35.8497C13.127 35.1536 13.4034 34.4861 13.8955 33.9938L26.8893 21.0001L13.8955 8.0063C13.4174 7.51122 13.1528 6.84814 13.1587 6.15987C13.1647 5.47161 13.4408 4.81322 13.9275 4.32653C14.4142 3.83983 15.0726 3.56377 15.7608 3.55779C16.4491 3.5518 17.1122 3.81639 17.6073 4.29456L32.4569 19.1442C32.949 19.6364 33.2255 20.304 33.2255 21.0001C33.2255 21.6961 32.949 22.3637 32.4569 22.8559L17.6073 37.7056C17.115 38.1977 16.4474 38.4741 15.7514 38.4741C15.0553 38.4741 14.3878 38.1977 13.8955 37.7056Z" />
</svg>
